<svg width="276" height="72" viewBox="0 0 276 72" fill="none" xmlns="http://www.w3.org/2000/svg">
<path d="M42.32 5.64L41.648 12.744H26.864V69H15.632V12.744H0.56V5.64H42.32ZM72.998 55.464C74.47 56.168 75.206 57.544 75.206 59.592C75.206 61.896 74.438 63.944 72.902 65.736C71.366 67.464 69.382 68.776 66.95 69.672C64.518 70.632 62.054 71.112 59.558 71.112C52.518 71.112 47.302 68.84 43.91 64.296C40.518 59.688 38.822 53.512 38.822 45.768C38.822 37.512 40.646 30.856 44.294 25.8C48.006 20.68 53.606 18.12 61.094 18.12C65.83 18.12 69.638 19.368 72.518 21.864C75.398 24.296 76.838 27.752 76.838 32.232C76.838 37.8 74.886 41.704 70.982 43.944C67.142 46.184 61.894 47.304 55.238 47.304C53.382 47.304 51.622 47.24 49.958 47.112C50.15 52.168 50.982 56.2 52.454 59.208C53.99 62.216 56.678 63.72 60.518 63.72C63.334 63.72 65.798 63.016 67.91 61.608C70.086 60.136 71.782 58.088 72.998 55.464ZM59.558 23.592C56.102 23.592 53.67 25.416 52.262 29.064C50.854 32.648 50.086 37.064 49.958 42.312C51.878 42.44 53.286 42.504 54.182 42.504C62.246 42.504 66.278 39.272 66.278 32.808C66.278 30.184 65.702 28.008 64.55 26.28C63.462 24.488 61.798 23.592 59.558 23.592ZM103.527 23.784C97.1268 23.784 93.9268 30.76 93.9268 44.712C93.9268 50.408 94.6308 55.016 96.0388 58.536C97.5108 61.992 100.327 63.72 104.487 63.72C107.303 63.72 109.703 62.984 111.687 61.512C113.735 59.976 115.111 57.832 115.815 55.08C116.903 55.592 117.671 56.2 118.119 56.904C118.631 57.544 118.887 58.44 118.887 59.592C118.887 61.896 118.119 63.944 116.583 65.736C115.111 67.464 113.191 68.776 110.823 69.672C108.455 70.632 106.023 71.112 103.527 71.112C96.4868 71.112 91.2708 68.84 87.8788 64.296C84.4868 59.688 82.7908 53.512 82.7908 45.768C82.7908 37.512 84.6148 30.856 88.2628 25.8C91.9748 20.68 97.5428 18.12 104.967 18.12C109.319 18.12 112.903 19.016 115.719 20.808C118.535 22.6 119.943 25.352 119.943 29.064C119.943 31.24 119.271 32.904 117.927 34.056C116.583 35.208 114.759 35.784 112.455 35.784C111.751 35.784 111.015 35.688 110.247 35.496C109.543 35.304 108.967 35.048 108.519 34.728C109.031 33.192 109.287 31.752 109.287 30.408C109.287 25.992 107.367 23.784 103.527 23.784ZM139.843 11.496C139.843 18.472 139.523 23.592 138.883 26.856C140.227 23.976 142.115 21.8 144.547 20.328C146.979 18.856 149.827 18.12 153.091 18.12C158.467 18.12 162.211 19.624 164.323 22.632C166.435 25.576 167.491 30.088 167.491 36.168V61.128C167.491 64.264 168.483 66.376 170.467 67.464C169.955 68.424 169.123 69.16 167.971 69.672C166.819 70.184 165.603 70.44 164.323 70.44C161.827 70.44 159.971 69.736 158.755 68.328C157.539 66.92 156.931 64.936 156.931 62.376V37.512C156.931 33.48 156.483 30.472 155.587 28.488C154.691 26.504 152.707 25.512 149.635 25.512C145.731 25.512 143.107 27.24 141.763 30.696C140.483 34.152 139.843 38.6 139.843 44.04V69H129.283V1.8L139.843 0.647999V11.496ZM215.512 48.072H224.056L223.384 55.176H215.512V69H204.28V55.176H178.168C177.08 55.176 176.216 54.824 175.576 54.12C174.936 53.352 174.616 52.36 174.616 51.144C174.616 49.736 175.32 47.944 176.728 45.768L204.28 5.64H215.512V48.072ZM204.28 19.08L184.312 48.072H204.28V19.08ZM275.034 5.64L275.706 12.648L249.21 71.112L236.538 69L264.666 14.664L229.05 14.76L229.722 5.64H275.034Z" fill="black"/>
</svg>
