<svg width="498" height="45" viewBox="0 0 498 45" fill="none" xmlns="http://www.w3.org/2000/svg">
<path d="M21.28 12.008C21.28 14.184 20.72 16.04 19.6 17.576C18.512 19.112 17.008 20.152 15.088 20.696L23.44 35H17.296L8.752 19.832C8.56 19.48 8.464 19.16 8.464 18.872C10.864 18.872 12.64 18.344 13.792 17.288C14.944 16.2 15.52 14.504 15.52 12.2C15.52 10.28 15.024 8.856 14.032 7.928C13.072 6.968 11.584 6.488 9.568 6.488C8.576 6.488 7.552 6.568 6.496 6.728V35H0.88V3.512C4.656 3.256 7.664 3.128 9.904 3.128C17.488 3.128 21.28 6.088 21.28 12.008ZM42.124 28.232C42.86 28.584 43.228 29.272 43.228 30.296C43.228 31.448 42.844 32.472 42.076 33.368C41.308 34.232 40.316 34.888 39.1 35.336C37.884 35.816 36.652 36.056 35.404 36.056C31.884 36.056 29.276 34.92 27.58 32.648C25.884 30.344 25.036 27.256 25.036 23.384C25.036 19.256 25.948 15.928 27.772 13.4C29.628 10.84 32.428 9.56 36.172 9.56C38.54 9.56 40.444 10.184 41.884 11.432C43.324 12.648 44.044 14.376 44.044 16.616C44.044 19.4 43.068 21.352 41.116 22.472C39.196 23.592 36.572 24.152 33.244 24.152C32.316 24.152 31.436 24.12 30.604 24.056C30.7 26.584 31.116 28.6 31.852 30.104C32.62 31.608 33.964 32.36 35.884 32.36C37.292 32.36 38.524 32.008 39.58 31.304C40.668 30.568 41.516 29.544 42.124 28.232ZM35.404 12.296C33.676 12.296 32.46 13.208 31.756 15.032C31.052 16.824 30.668 19.032 30.604 21.656C31.564 21.72 32.268 21.752 32.716 21.752C36.748 21.752 38.764 20.136 38.764 16.904C38.764 15.592 38.476 14.504 37.9 13.64C37.356 12.744 36.524 12.296 35.404 12.296ZM61.6604 32.792C61.0524 33.912 60.1564 34.728 58.9724 35.24C57.8204 35.784 56.5084 36.056 55.0364 36.056C52.8284 36.056 50.9724 35.384 49.4684 34.04C47.9964 32.696 47.2604 30.952 47.2604 28.808C47.2604 23.624 51.8844 21.032 61.1324 21.032V16.856C61.1324 15.256 60.8924 14.072 60.4124 13.304C59.9324 12.504 59.0204 12.104 57.6764 12.104C56.5564 12.104 55.6284 12.408 54.8924 13.016C54.1564 13.592 53.7884 14.408 53.7884 15.464C53.7884 16.136 53.9164 16.856 54.1724 17.624C53.7244 17.976 53.0844 18.152 52.2524 18.152C51.1004 18.152 50.1884 17.864 49.5164 17.288C48.8444 16.712 48.5084 15.88 48.5084 14.792C48.5084 13.256 49.3724 12.008 51.1004 11.048C52.8284 10.056 55.1324 9.56 58.0124 9.56C60.1244 9.56 61.7884 9.88 63.0044 10.52C64.2204 11.128 65.0844 12.088 65.5964 13.4C66.1404 14.68 66.4124 16.408 66.4124 18.584V31.064C66.4124 32.632 66.9084 33.688 67.9004 34.232C67.6444 34.712 67.2604 35.08 66.7484 35.336C66.2684 35.592 65.7084 35.72 65.0684 35.72C64.1404 35.72 63.3724 35.464 62.7644 34.952C62.1564 34.408 61.7884 33.688 61.6604 32.792ZM56.9084 32.84C58.3164 32.84 59.3724 32.312 60.0764 31.256C60.7804 30.168 61.1324 28.824 61.1324 27.224V23.432C55.7244 23.432 53.0204 25.16 53.0204 28.616C53.0204 29.896 53.3564 30.92 54.0284 31.688C54.7324 32.456 55.6924 32.84 56.9084 32.84ZM81.3884 12.392C78.1884 12.392 76.5884 15.88 76.5884 22.856C76.5884 25.704 76.9404 28.008 77.6444 29.768C78.3804 31.496 79.7884 32.36 81.8684 32.36C83.2764 32.36 84.4764 31.992 85.4684 31.256C86.4924 30.488 87.1804 29.416 87.5324 28.04C88.0764 28.296 88.4604 28.6 88.6844 28.952C88.9404 29.272 89.0684 29.72 89.0684 30.296C89.0684 31.448 88.6844 32.472 87.9164 33.368C87.1804 34.232 86.2204 34.888 85.0364 35.336C83.8524 35.816 82.6364 36.056 81.3884 36.056C77.8684 36.056 75.2604 34.92 73.5644 32.648C71.8684 30.344 71.0204 27.256 71.0204 23.384C71.0204 19.256 71.9324 15.928 73.7564 13.4C75.6124 10.84 78.3964 9.56 82.1084 9.56C84.2844 9.56 86.0764 10.008 87.4844 10.904C88.8924 11.8 89.5964 13.176 89.5964 15.032C89.5964 16.12 89.2604 16.952 88.5884 17.528C87.9164 18.104 87.0044 18.392 85.8524 18.392C85.5004 18.392 85.1324 18.344 84.7484 18.248C84.3964 18.152 84.1084 18.024 83.8844 17.864C84.1404 17.096 84.2684 16.376 84.2684 15.704C84.2684 13.496 83.3084 12.392 81.3884 12.392ZM91.1463 12.68L91.0983 11.24C92.5383 10.664 93.8983 9.896 95.1783 8.936C96.4903 7.976 97.5943 6.92 98.4903 5.768H99.9783V10.52H104.394V12.68H99.8823V30.152C99.8823 31.112 100.058 31.832 100.41 32.312C100.762 32.792 101.322 33.096 102.09 33.224C101.93 33.96 101.498 34.552 100.794 35C100.122 35.48 99.3383 35.72 98.4423 35.72C95.8503 35.72 94.5543 34.248 94.5543 31.304V12.68H91.1463ZM110.402 29.912C111.458 29.912 112.306 30.168 112.946 30.68C113.586 31.192 113.906 31.928 113.906 32.888C113.906 33.88 113.554 34.632 112.85 35.144C112.178 35.688 111.314 35.96 110.258 35.96C109.202 35.96 108.354 35.704 107.714 35.192C107.074 34.68 106.754 33.944 106.754 32.984C106.754 31.992 107.09 31.24 107.762 30.728C108.466 30.184 109.346 29.912 110.402 29.912ZM122.22 0.439999C123.276 0.439999 124.124 0.695998 124.764 1.208C125.436 1.72 125.772 2.456 125.772 3.416C125.772 4.408 125.42 5.176 124.716 5.72C124.044 6.232 123.164 6.488 122.076 6.488C121.02 6.488 120.172 6.232 119.532 5.72C118.892 5.208 118.572 4.472 118.572 3.512C118.572 2.52 118.908 1.768 119.58 1.256C120.284 0.711999 121.164 0.439999 122.22 0.439999ZM124.86 33.32C124.86 40.84 122.62 44.6 118.14 44.6C117.244 44.6 116.46 44.424 115.788 44.072C115.116 43.72 114.78 43.192 114.78 42.488C116.572 42.488 117.804 41.768 118.476 40.328C119.18 38.888 119.532 37 119.532 34.664V10.52H124.86V33.32ZM138.975 12.104C138.015 12.104 137.247 12.36 136.671 12.872C136.095 13.352 135.807 14.056 135.807 14.984C135.807 16.232 136.223 17.256 137.055 18.056C137.919 18.824 139.231 19.688 140.991 20.648C142.399 21.416 143.519 22.104 144.351 22.712C145.215 23.32 145.951 24.104 146.559 25.064C147.167 25.992 147.471 27.128 147.471 28.472C147.471 30.904 146.591 32.776 144.831 34.088C143.103 35.4 140.895 36.056 138.207 36.056C135.871 36.056 133.903 35.656 132.303 34.856C130.735 34.056 129.951 32.728 129.951 30.872C129.951 29.784 130.287 28.952 130.959 28.376C131.631 27.8 132.543 27.512 133.695 27.512C134.527 27.512 135.167 27.688 135.615 28.04C135.359 28.808 135.231 29.528 135.231 30.2C135.231 31.224 135.551 32.04 136.191 32.648C136.831 33.224 137.695 33.512 138.783 33.512C139.967 33.512 140.863 33.208 141.471 32.6C142.111 31.96 142.431 31.032 142.431 29.816C142.431 28.568 141.999 27.56 141.135 26.792C140.303 25.992 139.007 25.112 137.247 24.152C135.839 23.352 134.703 22.648 133.839 22.04C133.007 21.432 132.287 20.664 131.679 19.736C131.071 18.776 130.767 17.624 130.767 16.28C130.767 14.136 131.631 12.488 133.359 11.336C135.087 10.152 137.183 9.56 139.647 9.56C141.919 9.56 143.775 9.976 145.215 10.808C146.687 11.608 147.423 12.936 147.423 14.792C147.423 15.88 147.071 16.712 146.367 17.288C145.695 17.864 144.783 18.152 143.631 18.152C142.799 18.152 142.159 17.976 141.711 17.624C141.967 16.856 142.095 16.136 142.095 15.464C142.095 14.408 141.823 13.592 141.279 13.016C140.767 12.408 139.999 12.104 138.975 12.104ZM154.831 30.296C156.079 30.296 157.023 30.664 157.663 31.4C158.303 32.104 158.623 33.112 158.623 34.424C158.623 35.448 158.383 36.456 157.903 37.448C157.423 38.44 156.767 39.24 155.935 39.848C155.103 40.488 154.191 40.808 153.199 40.808C152.527 40.808 151.919 40.696 151.375 40.472C152.559 38.712 153.151 36.76 153.151 34.616C153.151 33.912 153.071 33.288 152.911 32.744C152.751 32.168 152.495 31.56 152.143 30.92C152.879 30.504 153.775 30.296 154.831 30.296ZM183.255 5.72C180.695 5.72 178.967 7 178.071 9.56C177.175 12.088 176.727 15.256 176.727 19.064C176.727 22.968 177.175 26.152 178.071 28.616C178.967 31.08 180.775 32.312 183.495 32.312C184.999 32.312 186.375 32.104 187.623 31.688L187.431 20.456L192.663 19.784V34.088C191.511 34.696 190.039 35.176 188.247 35.528C186.455 35.88 184.823 36.056 183.351 36.056C178.807 36.056 175.559 34.584 173.607 31.64C171.655 28.664 170.679 24.552 170.679 19.304C170.679 14.12 171.703 10.008 173.751 6.968C175.831 3.896 179.143 2.36 183.687 2.36C186.535 2.36 188.839 2.92 190.599 4.04C192.359 5.16 193.239 6.936 193.239 9.368C193.239 10.52 192.903 11.464 192.231 12.2C191.559 12.904 190.647 13.256 189.495 13.256C188.439 13.256 187.607 13 186.999 12.488C187.255 11.784 187.383 10.984 187.383 10.088C187.383 8.712 187.031 7.64 186.327 6.872C185.623 6.104 184.599 5.72 183.255 5.72ZM206.962 13.256C205.586 13.256 204.69 14.184 204.274 16.04C203.89 17.864 203.698 20.056 203.698 22.616V35H198.418V10.52L202.834 9.944L203.074 14.264C203.522 12.824 204.306 11.688 205.426 10.856C206.546 9.992 207.842 9.56 209.314 9.56C210.914 9.56 212.178 10.024 213.106 10.952C214.066 11.88 214.546 13.144 214.546 14.744C214.546 17.336 213.298 18.632 210.802 18.632C209.97 18.632 209.33 18.456 208.882 18.104C209.106 17.272 209.218 16.552 209.218 15.944C209.218 14.152 208.466 13.256 206.962 13.256ZM230.364 32.792C229.756 33.912 228.86 34.728 227.676 35.24C226.524 35.784 225.212 36.056 223.74 36.056C221.532 36.056 219.676 35.384 218.172 34.04C216.7 32.696 215.964 30.952 215.964 28.808C215.964 23.624 220.588 21.032 229.836 21.032V16.856C229.836 15.256 229.596 14.072 229.116 13.304C228.636 12.504 227.724 12.104 226.38 12.104C225.26 12.104 224.332 12.408 223.596 13.016C222.86 13.592 222.492 14.408 222.492 15.464C222.492 16.136 222.62 16.856 222.876 17.624C222.428 17.976 221.788 18.152 220.956 18.152C219.804 18.152 218.892 17.864 218.22 17.288C217.548 16.712 217.212 15.88 217.212 14.792C217.212 13.256 218.076 12.008 219.804 11.048C221.532 10.056 223.836 9.56 226.716 9.56C228.828 9.56 230.492 9.88 231.708 10.52C232.924 11.128 233.788 12.088 234.3 13.4C234.844 14.68 235.116 16.408 235.116 18.584V31.064C235.116 32.632 235.612 33.688 236.604 34.232C236.348 34.712 235.964 35.08 235.452 35.336C234.972 35.592 234.412 35.72 233.772 35.72C232.844 35.72 232.076 35.464 231.468 34.952C230.86 34.408 230.492 33.688 230.364 32.792ZM225.612 32.84C227.02 32.84 228.076 32.312 228.78 31.256C229.484 30.168 229.836 28.824 229.836 27.224V23.432C224.428 23.432 221.724 25.16 221.724 28.616C221.724 29.896 222.06 30.92 222.732 31.688C223.436 32.456 224.396 32.84 225.612 32.84ZM253.404 9.56C256.412 9.56 258.556 10.776 259.836 13.208C261.116 15.608 261.756 18.68 261.756 22.424C261.756 26.52 260.876 29.816 259.116 32.312C257.356 34.808 254.652 36.056 251.004 36.056C249.468 36.056 248.076 35.848 246.828 35.432V43.688L241.548 44.264V10.52L245.964 9.944L246.204 14.264C247.548 11.128 249.948 9.56 253.404 9.56ZM251.532 13.256C249.868 13.256 248.668 13.928 247.932 15.272C247.196 16.584 246.828 18.248 246.828 20.264V31.688C248.3 32.68 249.772 33.176 251.244 33.176C253.196 33.176 254.476 32.184 255.084 30.2C255.692 28.216 255.996 25.704 255.996 22.664C255.996 19.816 255.724 17.544 255.18 15.848C254.636 14.12 253.42 13.256 251.532 13.256ZM271.953 6.248C271.953 9.736 271.793 12.296 271.473 13.928C272.145 12.488 273.089 11.4 274.305 10.664C275.521 9.928 276.945 9.56 278.577 9.56C281.265 9.56 283.137 10.312 284.193 11.816C285.249 13.288 285.777 15.544 285.777 18.584V31.064C285.777 32.632 286.273 33.688 287.265 34.232C287.009 34.712 286.593 35.08 286.017 35.336C285.441 35.592 284.833 35.72 284.193 35.72C282.945 35.72 282.017 35.368 281.409 34.664C280.801 33.96 280.497 32.968 280.497 31.688V19.256C280.497 17.24 280.273 15.736 279.825 14.744C279.377 13.752 278.385 13.256 276.849 13.256C274.897 13.256 273.585 14.12 272.913 15.848C272.273 17.576 271.953 19.8 271.953 22.52V35H266.673V1.4L271.953 0.823999V6.248ZM302.827 2.36C311.019 2.36 315.115 7.816 315.115 18.728C315.115 30.28 311.019 36.056 302.827 36.056C306.091 36.792 308.795 37.16 310.939 37.16C311.739 37.16 312.443 37.08 313.051 36.92C313.659 36.792 314.219 36.52 314.731 36.104C315.467 37.128 315.835 38.056 315.835 38.888C315.835 39.912 315.483 40.664 314.779 41.144C314.107 41.624 313.195 41.864 312.043 41.864C310.987 41.864 309.915 41.72 308.827 41.432C307.771 41.176 306.539 40.808 305.131 40.328C303.851 39.912 302.763 39.592 301.867 39.368C301.003 39.144 300.171 39.032 299.371 39.032C298.187 39.032 297.307 39.16 296.731 39.416C296.507 39.192 296.331 38.92 296.203 38.6C296.075 38.312 296.011 38.024 296.011 37.736C296.011 36.328 297.051 35.624 299.131 35.624C296.027 34.856 293.803 33.064 292.459 30.248C291.147 27.4 290.491 23.752 290.491 19.304C290.491 14.184 291.451 10.088 293.371 7.016C295.323 3.912 298.475 2.36 302.827 2.36ZM302.827 5.72C300.299 5.72 298.619 7 297.787 9.56C296.955 12.088 296.539 15.256 296.539 19.064C296.539 23.064 296.939 26.344 297.739 28.904C298.539 31.432 300.235 32.696 302.827 32.696C305.387 32.696 307.067 31.432 307.867 28.904C308.667 26.344 309.067 23.064 309.067 19.064C309.067 15.256 308.651 12.088 307.819 9.56C306.987 7 305.323 5.72 302.827 5.72ZM319.63 3.32H325.246V31.448H335.71L335.374 35H319.63V3.32ZM341.441 30.296C342.689 30.296 343.633 30.664 344.273 31.4C344.913 32.104 345.233 33.112 345.233 34.424C345.233 35.448 344.993 36.456 344.513 37.448C344.033 38.44 343.377 39.24 342.545 39.848C341.713 40.488 340.801 40.808 339.809 40.808C339.137 40.808 338.529 40.696 337.985 40.472C339.169 38.712 339.761 36.76 339.761 34.616C339.761 33.912 339.681 33.288 339.521 32.744C339.361 32.168 339.105 31.56 338.753 30.92C339.489 30.504 340.385 30.296 341.441 30.296ZM375.768 35L363.048 13.304V35H358.536V3.32H362.808L375.528 25.016V3.32H380.04V35H375.768ZM394.986 9.56C398.57 9.56 401.226 10.728 402.954 13.064C404.682 15.368 405.546 18.488 405.546 22.424C405.546 26.616 404.714 29.944 403.05 32.408C401.386 34.84 398.698 36.056 394.986 36.056C391.338 36.056 388.666 34.888 386.97 32.552C385.306 30.216 384.474 27 384.474 22.904C384.474 18.936 385.338 15.72 387.066 13.256C388.794 10.792 391.434 9.56 394.986 9.56ZM394.986 33.176C396.97 33.176 398.266 32.2 398.874 30.248C399.482 28.296 399.786 25.768 399.786 22.664C399.786 19.816 399.45 17.4 398.778 15.416C398.138 13.432 396.874 12.44 394.986 12.44C391.818 12.44 390.234 15.848 390.234 22.664C390.234 25.768 390.522 28.296 391.098 30.248C391.706 32.2 393.002 33.176 394.986 33.176ZM428.822 31.064C428.822 32.632 429.318 33.688 430.31 34.232C430.054 34.712 429.67 35.08 429.158 35.336C428.678 35.592 428.118 35.72 427.478 35.72C426.55 35.72 425.782 35.464 425.174 34.952C424.566 34.408 424.198 33.688 424.07 32.792C423.558 33.848 422.726 34.648 421.574 35.192C420.454 35.768 419.238 36.056 417.926 36.056C414.662 36.056 412.294 34.808 410.822 32.312C409.35 29.816 408.614 26.616 408.614 22.712C408.614 18.68 409.478 15.48 411.206 13.112C412.966 10.744 415.686 9.56 419.366 9.56C420.902 9.56 422.294 9.768 423.542 10.184V1.4L428.822 0.823999V31.064ZM423.542 13.928C422.07 12.936 420.598 12.44 419.126 12.44C417.174 12.44 415.894 13.368 415.286 15.224C414.678 17.08 414.374 19.496 414.374 22.472C414.374 25.32 414.726 27.768 415.43 29.816C416.134 31.832 417.43 32.84 419.318 32.84C420.726 32.84 421.782 32.312 422.486 31.256C423.19 30.168 423.542 28.824 423.542 27.224V13.928ZM451.015 28.232C451.751 28.584 452.119 29.272 452.119 30.296C452.119 31.448 451.735 32.472 450.967 33.368C450.199 34.232 449.207 34.888 447.991 35.336C446.775 35.816 445.543 36.056 444.295 36.056C440.775 36.056 438.167 34.92 436.471 32.648C434.775 30.344 433.927 27.256 433.927 23.384C433.927 19.256 434.839 15.928 436.663 13.4C438.519 10.84 441.319 9.56 445.063 9.56C447.431 9.56 449.335 10.184 450.775 11.432C452.215 12.648 452.935 14.376 452.935 16.616C452.935 19.4 451.959 21.352 450.007 22.472C448.087 23.592 445.463 24.152 442.135 24.152C441.207 24.152 440.327 24.12 439.495 24.056C439.591 26.584 440.007 28.6 440.743 30.104C441.511 31.608 442.855 32.36 444.775 32.36C446.183 32.36 447.415 32.008 448.471 31.304C449.559 30.568 450.407 29.544 451.015 28.232ZM444.295 12.296C442.567 12.296 441.351 13.208 440.647 15.032C439.943 16.824 439.559 19.032 439.495 21.656C440.455 21.72 441.159 21.752 441.607 21.752C445.639 21.752 447.655 20.136 447.655 16.904C447.655 15.592 447.367 14.504 446.791 13.64C446.247 12.744 445.415 12.296 444.295 12.296ZM460.183 29.912C461.239 29.912 462.087 30.168 462.727 30.68C463.367 31.192 463.687 31.928 463.687 32.888C463.687 33.88 463.335 34.632 462.631 35.144C461.959 35.688 461.095 35.96 460.039 35.96C458.983 35.96 458.135 35.704 457.495 35.192C456.855 34.68 456.535 33.944 456.535 32.984C456.535 31.992 456.871 31.24 457.543 30.728C458.247 30.184 459.127 29.912 460.183 29.912ZM472.001 0.439999C473.057 0.439999 473.905 0.695998 474.545 1.208C475.217 1.72 475.553 2.456 475.553 3.416C475.553 4.408 475.201 5.176 474.497 5.72C473.825 6.232 472.945 6.488 471.857 6.488C470.801 6.488 469.953 6.232 469.313 5.72C468.673 5.208 468.353 4.472 468.353 3.512C468.353 2.52 468.689 1.768 469.361 1.256C470.065 0.711999 470.945 0.439999 472.001 0.439999ZM474.641 33.32C474.641 40.84 472.401 44.6 467.921 44.6C467.025 44.6 466.241 44.424 465.569 44.072C464.897 43.72 464.561 43.192 464.561 42.488C466.353 42.488 467.585 41.768 468.257 40.328C468.961 38.888 469.313 37 469.313 34.664V10.52H474.641V33.32ZM488.757 12.104C487.797 12.104 487.029 12.36 486.453 12.872C485.877 13.352 485.589 14.056 485.589 14.984C485.589 16.232 486.005 17.256 486.837 18.056C487.701 18.824 489.013 19.688 490.773 20.648C492.181 21.416 493.301 22.104 494.133 22.712C494.997 23.32 495.733 24.104 496.341 25.064C496.949 25.992 497.253 27.128 497.253 28.472C497.253 30.904 496.373 32.776 494.613 34.088C492.885 35.4 490.677 36.056 487.989 36.056C485.653 36.056 483.685 35.656 482.085 34.856C480.517 34.056 479.733 32.728 479.733 30.872C479.733 29.784 480.069 28.952 480.741 28.376C481.413 27.8 482.325 27.512 483.477 27.512C484.309 27.512 484.949 27.688 485.397 28.04C485.141 28.808 485.013 29.528 485.013 30.2C485.013 31.224 485.333 32.04 485.973 32.648C486.613 33.224 487.477 33.512 488.565 33.512C489.749 33.512 490.645 33.208 491.253 32.6C491.893 31.96 492.213 31.032 492.213 29.816C492.213 28.568 491.781 27.56 490.917 26.792C490.085 25.992 488.789 25.112 487.029 24.152C485.621 23.352 484.485 22.648 483.621 22.04C482.789 21.432 482.069 20.664 481.461 19.736C480.853 18.776 480.549 17.624 480.549 16.28C480.549 14.136 481.413 12.488 483.141 11.336C484.869 10.152 486.965 9.56 489.429 9.56C491.701 9.56 493.557 9.976 494.997 10.808C496.469 11.608 497.205 12.936 497.205 14.792C497.205 15.88 496.853 16.712 496.149 17.288C495.477 17.864 494.565 18.152 493.413 18.152C492.581 18.152 491.941 17.976 491.493 17.624C491.749 16.856 491.877 16.136 491.877 15.464C491.877 14.408 491.605 13.592 491.061 13.016C490.549 12.408 489.781 12.104 488.757 12.104Z" fill="black"/>
</svg>
