<svg width="158" height="40" viewBox="0 0 158 40" fill="none" xmlns="http://www.w3.org/2000/svg">
<path d="M0 5C0 2.23858 2.23858 0 5 0H153C155.761 0 158 2.23858 158 5V35C158 37.7614 155.761 40 153 40H5C2.23858 40 0 37.7614 0 35V5Z" fill="#101010"/>
<g filter="url(#filter0_i)">
<path d="M66.75 8.9375V13.0938H69.0156V16.4219H66.75V24.8125C66.75 25.4792 66.8385 25.9375 67.0156 26.1875C67.2031 26.4375 67.5573 26.5625 68.0781 26.5625C68.5052 26.5625 68.8542 26.526 69.125 26.4531L69.0938 29.8906C68.3438 30.1719 67.5312 30.3125 66.6562 30.3125C63.8021 30.3125 62.3594 28.6771 62.3281 25.4062V16.4219H60.375V13.0938H62.3281V8.9375H66.75ZM78.2812 30.3125C76.0104 30.3125 74.2396 29.6354 72.9688 28.2812C71.6979 26.9271 71.0625 24.9896 71.0625 22.4688V21.125C71.0625 18.4583 71.6458 16.401 72.8125 14.9531C73.9792 13.5052 75.651 12.7812 77.8281 12.7812C79.9531 12.7812 81.5521 13.4635 82.625 14.8281C83.6979 16.1823 84.2448 18.1927 84.2656 20.8594V23.0312H75.4688C75.5312 24.2812 75.8073 25.1979 76.2969 25.7812C76.7865 26.3542 77.5417 26.6406 78.5625 26.6406C80.0417 26.6406 81.276 26.1354 82.2656 25.125L84 27.7969C83.4583 28.5469 82.6719 29.1562 81.6406 29.625C80.6094 30.0833 79.4896 30.3125 78.2812 30.3125ZM75.5 19.9375H79.9219V19.5312C79.901 18.5208 79.7344 17.7552 79.4219 17.2344C79.1094 16.7135 78.5677 16.4531 77.7969 16.4531C77.026 16.4531 76.4635 16.7292 76.1094 17.2812C75.7656 17.8333 75.5625 18.7188 75.5 19.9375ZM92.875 26.6406C94.1562 26.6406 94.8073 25.8073 94.8281 24.1406H98.9844C98.9635 25.9844 98.3958 27.474 97.2812 28.6094C96.1667 29.7448 94.7292 30.3125 92.9688 30.3125C90.7917 30.3125 89.1302 29.6354 87.9844 28.2812C86.8385 26.9271 86.2552 24.9323 86.2344 22.2969V20.9531C86.2344 18.2969 86.7969 16.2708 87.9219 14.875C89.0573 13.4792 90.7292 12.7812 92.9375 12.7812C94.8021 12.7812 96.2708 13.3594 97.3438 14.5156C98.4167 15.6615 98.9635 17.2917 98.9844 19.4062H94.8281C94.8177 18.4583 94.6615 17.7292 94.3594 17.2188C94.0573 16.7083 93.5573 16.4531 92.8594 16.4531C92.0885 16.4531 91.5365 16.7292 91.2031 17.2812C90.8698 17.8229 90.6927 18.8802 90.6719 20.4531V22.1719C90.6719 23.5469 90.7396 24.5104 90.875 25.0625C91.0104 25.6042 91.2344 26.0052 91.5469 26.2656C91.8594 26.5156 92.3021 26.6406 92.875 26.6406ZM105.797 14.5781C106.755 13.3802 107.932 12.7812 109.328 12.7812C110.87 12.7812 112.042 13.3229 112.844 14.4062C113.646 15.4896 114.052 17.1042 114.062 19.25V30H109.625V19.2969C109.625 18.3073 109.469 17.5938 109.156 17.1562C108.854 16.7083 108.359 16.4844 107.672 16.4844C106.87 16.4844 106.245 16.8542 105.797 17.5938V30H101.375V6H105.797V14.5781ZM127.123 22.4805H128.818V25.6934H127.123V30H123.254V25.6934H116.664L116.486 23.1914L123.24 10.0938H127.123V22.4805ZM120.246 22.4805H123.254V15.8223L123.172 15.9727L120.246 22.4805ZM142.764 12.3223L136.475 30H132.387L138.703 13.3066H130.719V10.0938H142.764V12.3223Z" fill="#F0F0F0" fill-opacity="0.89"/>
</g>
<path d="M44 0H14C11.2386 0 9 2.23858 9 5V35C9 37.7614 11.2386 40 14 40H44C46.7614 40 49 37.7614 49 35V5C49 2.23858 46.7614 0 44 0Z" fill="#101010"/>
<path d="M29 35.7646C37.8366 35.7646 45 28.6012 45 19.7646C45 10.9281 37.8366 3.76465 29 3.76465C20.1634 3.76465 13 10.9281 13 19.7646C13 28.6012 20.1634 35.7646 29 35.7646Z" fill="#F0F0F0" fill-opacity="0.89"/>
<path d="M29 9L38 27H20L29 9Z" fill="#101010"/>
<defs>
<filter id="filter0_i" x="60.375" y="6" width="82.3887" height="28.3125" filterUnits="userSpaceOnUse" color-interpolation-filters="sRGB">
<feFlood flood-opacity="0" result="BackgroundImageFix"/>
<feBlend mode="normal" in="SourceGraphic" in2="BackgroundImageFix" result="shape"/>
<feColorMatrix in="SourceAlpha" type="matrix" values="0 0 0 0 0 0 0 0 0 0 0 0 0 0 0 0 0 0 127 0" result="hardAlpha"/>
<feOffset dy="4"/>
<feGaussianBlur stdDeviation="2"/>
<feComposite in2="hardAlpha" operator="arithmetic" k2="-1" k3="1"/>
<feColorMatrix type="matrix" values="0 0 0 0 0 0 0 0 0 0 0 0 0 0 0 0 0 0 0.25 0"/>
<feBlend mode="normal" in2="shape" result="effect1_innerShadow"/>
</filter>
</defs>
</svg>
