<svg width="372" height="302" viewBox="0 0 372 302" fill="none" xmlns="http://www.w3.org/2000/svg">
<g clip-path="url(#clip0)">
<path d="M48.9256 185.99C48.9256 185.99 28.3874 145.748 37.402 111.613C41.1849 97.2658 40.492 82.1244 34.9244 68.3898C32.2686 61.8841 29.0227 55.6351 25.2274 49.7212" stroke="#535461" stroke-width="2" stroke-miterlimit="10"/>
<path d="M30.7811 28.1551C31.761 33.376 25.1505 50.2845 25.1505 50.2845C25.1505 50.2845 12.8605 36.9207 11.8806 31.7033C11.4775 29.226 12.0589 26.6893 13.5008 24.6349C14.9426 22.5804 17.1306 21.1711 19.5975 20.7079C22.0644 20.2447 24.6146 20.7643 26.7036 22.1558C28.7925 23.5473 30.2546 25.7003 30.7776 28.1551H30.7811Z" fill="#6C63FF"/>
<path d="M51.8302 54.1371C49.8145 59.0361 35.0748 69.6529 35.0748 69.6529C35.0748 69.6529 32.0198 51.7576 34.025 46.8412C34.4978 45.6639 35.199 44.5919 36.088 43.6869C36.977 42.7818 38.0363 42.0616 39.2049 41.5677C40.3735 41.0738 41.6282 40.816 42.8969 40.8092C44.1656 40.8024 45.423 41.0467 46.5969 41.528C47.7707 42.0092 48.8377 42.718 49.7364 43.6135C50.6351 44.5089 51.3477 45.5733 51.8331 46.7454C52.3186 47.9175 52.5674 49.174 52.565 50.4426C52.5627 51.7112 52.3094 52.9668 51.8197 54.1371H51.8302Z" fill="#6C63FF"/>
<path d="M60.4319 103.669C56.2116 106.896 38.137 108.603 38.137 108.603C38.137 108.603 44.5339 91.6108 48.7543 88.388C49.7577 87.6212 50.9023 87.0597 52.1228 86.7353C53.3433 86.4109 54.6157 86.3301 55.8674 86.4974C57.1192 86.6647 58.3257 87.077 59.418 87.7106C60.5104 88.3442 61.4673 89.1867 62.2341 90.1901C63.0009 91.1935 63.5625 92.3381 63.8869 93.5585C64.2113 94.7789 64.2921 96.0513 64.1248 97.3029C63.9574 98.5546 63.5452 99.761 62.9115 100.853C62.2779 101.946 61.4353 102.903 60.4319 103.669Z" fill="#6C63FF"/>
<path d="M58.4792 142.613C54.8643 146.504 37.3356 151.242 37.3356 151.242C37.3356 151.242 40.7685 133.413 44.3834 129.522C46.1244 127.675 48.5249 126.592 51.0615 126.508C53.5981 126.423 56.0651 127.345 57.9248 129.072C59.7845 130.799 60.886 133.191 60.9892 135.727C61.0924 138.263 60.1889 140.737 58.4757 142.609L58.4792 142.613Z" fill="#6C63FF"/>
<path d="M15.4186 74.384C19.8454 77.3199 37.9935 77.8133 37.9935 77.8133C37.9935 77.8133 30.4697 61.2897 26.0429 58.3538C24.9903 57.656 23.8105 57.1724 22.571 56.9305C21.3315 56.6886 20.0564 56.6932 18.8187 56.9441C17.5809 57.1949 16.4047 57.6871 15.3572 58.3925C14.3097 59.0979 13.4113 60.0027 12.7135 61.0553C12.0157 62.1078 11.532 63.2875 11.2901 64.527C11.0482 65.7664 11.0528 67.0414 11.3037 68.2791C11.5546 69.5168 12.0468 70.6929 12.7522 71.7404C13.4576 72.7879 14.3625 73.6862 15.4151 74.384H15.4186Z" fill="#6C63FF"/>
<path d="M13.7283 119.958C18.8305 121.435 36.2962 116.459 36.2962 116.459C36.2962 116.459 24.1741 102.945 19.0719 101.468C16.6353 100.802 14.0343 101.121 11.8311 102.357C9.62779 103.592 7.99923 105.645 7.2973 108.072C6.59537 110.498 6.87646 113.103 8.07982 115.324C9.28318 117.545 11.3122 119.204 13.7283 119.941V119.958Z" fill="#6C63FF"/>
<path d="M18.1621 164.476C22.9424 166.793 40.9925 164.858 40.9925 164.858C40.9925 164.858 31.327 149.489 26.5503 147.172C25.4141 146.621 24.1803 146.299 22.9195 146.224C21.6587 146.149 20.3956 146.324 19.2022 146.737C18.0088 147.151 16.9086 147.795 15.9642 148.634C15.0199 149.472 14.2501 150.489 13.6986 151.625C13.1471 152.761 12.8249 153.995 12.7502 155.256C12.6756 156.516 12.85 157.779 13.2635 158.973C13.677 160.166 14.3215 161.266 15.1602 162.211C15.9989 163.155 17.0154 163.925 18.1516 164.476H18.1621Z" fill="#C4C4C4"/>
<path d="M30.7811 28.1551C31.761 33.376 25.1505 50.2845 25.1505 50.2845C25.1505 50.2845 12.8605 36.9207 11.8806 31.7033C11.4775 29.226 12.0589 26.6893 13.5008 24.6349C14.9426 22.5804 17.1306 21.1711 19.5975 20.7079C22.0644 20.2447 24.6146 20.7643 26.7036 22.1558C28.7925 23.5473 30.2546 25.7003 30.7776 28.1551H30.7811Z" fill="#FC6681"/>
<path d="M51.8302 54.1371C49.8145 59.0361 35.0748 69.6529 35.0748 69.6529C35.0748 69.6529 32.0198 51.7576 34.025 46.8412C34.4978 45.6639 35.199 44.5919 36.088 43.6869C36.977 42.7818 38.0363 42.0616 39.2049 41.5677C40.3735 41.0738 41.6282 40.816 42.8969 40.8092C44.1656 40.8024 45.423 41.0467 46.5969 41.528C47.7707 42.0092 48.8377 42.718 49.7364 43.6135C50.6351 44.5089 51.3477 45.5733 51.8331 46.7454C52.3186 47.9175 52.5674 49.174 52.565 50.4426C52.5627 51.7112 52.3094 52.9668 51.8197 54.1371H51.8302Z" fill="#FC6681"/>
<path d="M60.4319 103.669C56.2116 106.896 38.137 108.603 38.137 108.603C38.137 108.603 44.5339 91.6108 48.7543 88.388C49.7577 87.6212 50.9023 87.0597 52.1228 86.7353C53.3433 86.4109 54.6157 86.3301 55.8674 86.4974C57.1192 86.6647 58.3257 87.077 59.418 87.7106C60.5104 88.3442 61.4673 89.1867 62.2341 90.1901C63.0009 91.1935 63.5625 92.3381 63.8869 93.5585C64.2113 94.7789 64.2921 96.0513 64.1248 97.3029C63.9574 98.5546 63.5452 99.761 62.9115 100.853C62.2779 101.946 61.4353 102.903 60.4319 103.669Z" fill="#FC6681"/>
<path d="M58.4792 142.613C54.8643 146.504 37.3356 151.242 37.3356 151.242C37.3356 151.242 40.7685 133.413 44.3834 129.522C46.1244 127.675 48.5249 126.592 51.0615 126.508C53.5981 126.423 56.0651 127.345 57.9248 129.072C59.7845 130.799 60.886 133.191 60.9892 135.727C61.0924 138.263 60.1889 140.737 58.4757 142.609L58.4792 142.613Z" fill="#FC6681"/>
<path d="M15.4186 74.384C19.8454 77.3199 37.9935 77.8133 37.9935 77.8133C37.9935 77.8133 30.4697 61.2897 26.0429 58.3538C24.9903 57.656 23.8105 57.1724 22.571 56.9305C21.3315 56.6886 20.0564 56.6932 18.8187 56.9441C17.5809 57.1949 16.4047 57.6871 15.3572 58.3925C14.3097 59.0979 13.4113 60.0027 12.7135 61.0553C12.0157 62.1078 11.532 63.2875 11.2901 64.527C11.0482 65.7664 11.0528 67.0414 11.3037 68.2791C11.5546 69.5168 12.0468 70.6929 12.7522 71.7404C13.4576 72.7879 14.3625 73.6862 15.4151 74.384H15.4186Z" fill="#FC6681"/>
<path d="M13.7283 119.958C18.8305 121.435 36.2962 116.459 36.2962 116.459C36.2962 116.459 24.1741 102.945 19.0719 101.468C16.6353 100.802 14.0343 101.121 11.8311 102.357C9.62779 103.592 7.99923 105.645 7.2973 108.072C6.59537 110.498 6.87646 113.103 8.07982 115.324C9.28318 117.545 11.3122 119.204 13.7283 119.941V119.958Z" fill="#FC6681"/>
<path d="M18.1621 164.476C22.9424 166.793 40.9925 164.858 40.9925 164.858C40.9925 164.858 31.327 149.489 26.5503 147.172C25.4141 146.621 24.1803 146.299 22.9195 146.224C21.6587 146.149 20.3956 146.324 19.2022 146.737C18.0088 147.151 16.9086 147.795 15.9642 148.634C15.0199 149.472 14.2501 150.489 13.6986 151.625C13.1471 152.761 12.8249 153.995 12.7502 155.256C12.6756 156.516 12.85 157.779 13.2635 158.973C13.677 160.166 14.3215 161.266 15.1602 162.211C15.9989 163.155 17.0154 163.925 18.1516 164.476H18.1621Z" fill="#FC6681"/>
<path d="M321.469 110.986C321.469 110.986 347.536 70.0168 350.686 52.5205C353.835 35.0241 359.784 18.9275 359.784 18.9275" stroke="#535461" stroke-width="2" stroke-miterlimit="10"/>
<path d="M365.733 53.9202L349.286 55.3199C349.286 55.3199 358.035 70.3667 365.733 53.9202Z" fill="#6C63FF"/>
<path d="M337.038 44.822L350.063 55.2533C350.063 55.2533 333.189 61.9684 337.038 44.822Z" fill="#6C63FF"/>
<path d="M367.833 39.5732L353.023 41.5573C353.023 41.5573 366.083 52.1706 367.833 39.5732Z" fill="#6C63FF"/>
<path d="M343.337 34.3242L353.114 41.1863C353.114 41.1863 341.237 46.2217 343.337 34.3242Z" fill="#6C63FF"/>
<path d="M356.743 28.0922C356.743 28.0922 368.883 24.8764 370.633 25.5762C372.382 26.2761 371.333 33.9745 366.433 34.3244C361.534 34.6743 356.743 28.0922 356.743 28.0922Z" fill="#6C63FF"/>
<path d="M348.586 18.9275C348.586 18.9275 356.285 26.276 356.635 28.0256C356.985 29.7752 350.336 33.9743 346.836 28.0256C343.337 22.0768 348.586 18.9275 348.586 18.9275Z" fill="#6C63FF"/>
<path d="M362.93 23.1267C364.863 23.1267 366.43 21.56 366.43 19.6274C366.43 17.6948 364.863 16.1282 362.93 16.1282C360.998 16.1282 359.431 17.6948 359.431 19.6274C359.431 21.56 360.998 23.1267 362.93 23.1267Z" fill="#FFD037"/>
<path d="M356.631 21.377C358.564 21.377 360.131 19.8103 360.131 17.8777C360.131 15.9451 358.564 14.3784 356.631 14.3784C354.699 14.3784 353.132 15.9451 353.132 17.8777C353.132 19.8103 354.699 21.377 356.631 21.377Z" fill="#FFD037"/>
<path d="M363.791 92.6817C362.43 75.8187 354.759 59.5681 342.721 50.0501C329.836 39.8602 313.56 37.9566 298.898 31.8539C283.755 25.5342 270.286 14.669 255.291 7.89438C243.154 2.42707 229.947 -0.253567 216.639 0.0491921C203.331 0.351951 190.259 3.63042 178.384 9.64402C162.062 17.8813 145.524 37.1378 127.348 38.5865C114.4 39.6188 88.4623 26.647 78.3559 38.9189C76.5117 41.1584 75.7978 44.3078 75.0034 47.2717C68.5995 71.1332 52.8275 90.3127 34.8684 104.044C27.2606 109.853 18.0011 117.642 19.6633 128.052C20.5592 133.651 24.4925 137.759 27.4181 142.315C33.5456 151.851 35.5333 164.816 32.6112 176.23C32.5517 176.458 32.4888 176.685 32.4258 176.93L24.783 180.814C20.7376 182.868 16.3843 185.272 14.7221 189.496C13.0144 193.877 14.8096 198.836 17.2137 202.881C18.9354 205.775 20.9931 208.539 22.4384 211.552C22.5228 212.54 22.67 213.522 22.8793 214.491C23.2047 215.95 23.6736 217.373 24.2791 218.739C24.4086 223.488 22.6098 228.289 20.0797 232.387C16.9303 237.499 12.7309 241.859 9.19299 246.699C4.27628 253.379 0.59137 261.217 0.0629544 269.517C-0.465461 277.818 2.48807 286.573 8.91654 291.85C14.8166 296.693 22.7883 298.148 30.4101 298.498C32.3418 298.594 34.2723 298.635 36.2017 298.621C49.7935 298.621 63.3153 296.122 76.7077 293.624L91.1988 290.922C97.8478 289.68 104.794 288.28 111.146 285.89C110.971 287.223 110.713 288.544 110.372 289.845C109.314 293.633 108.853 297.563 109.007 301.494H180.34C180.34 301.553 180.365 301.613 180.379 301.672H224.583L224.506 301.494H224.583C224.583 301.494 223.908 299.366 223.005 295.492C224.041 294.991 225.007 294.356 225.878 293.603C227.925 292.258 229.583 290.4 230.686 288.214C230.686 288.214 232.814 250.128 230.735 228.499C253.646 213.256 273.317 190.924 297.375 177.896C309.882 171.146 323.495 166.947 335.082 158.219C341.608 153.251 347.217 147.181 351.655 140.282C360.425 126.772 365.152 109.559 363.791 92.6817Z" fill="url(#paint0_linear)"/>
<path d="M80.942 41.6728C79.1433 43.8563 78.4504 46.9217 77.6735 49.8156C71.4305 73.0822 56.054 91.8068 38.5393 105.167C31.124 110.829 22.0919 118.426 23.7157 128.574C24.587 134.025 28.4224 138.022 31.278 142.48C37.255 151.777 39.1902 164.42 36.3417 175.548C33.1012 188.212 24.0516 200.043 26.8547 212.836C28.5834 220.73 34.4485 226.329 40.0896 231.151C48.8871 238.67 57.9659 245.712 67.3257 252.276C73.6002 256.678 80.2736 260.961 87.584 261.518C94.0229 262.011 100.329 259.565 106.439 257.147C111.779 255.048 117.256 252.84 121.567 248.609C124.367 245.848 126.627 242.282 129.752 240.025C137.101 234.717 146.529 238.083 154.948 240.344C174.986 245.663 196.26 243.716 214.999 234.846C244.005 221.199 266.115 192.593 294.478 177.234C306.677 170.628 319.947 166.53 331.243 158.023C337.608 153.177 343.077 147.256 347.403 140.527C355.956 127.352 360.565 110.556 359.238 94.1163C357.912 77.6767 350.43 61.8285 338.697 52.5485C326.134 42.6141 310.267 40.7594 295.969 34.7932C281.204 28.631 268.075 18.0387 253.454 11.4321C241.621 6.09931 228.745 3.48349 215.769 3.77656C202.793 4.06964 190.048 7.26416 178.468 13.1257C162.556 21.1565 146.431 39.9336 128.706 41.3438C116.073 42.3726 90.8034 29.7227 80.942 41.6728Z" fill="black"/>
<path opacity="0.2" d="M222.68 130.145C222.68 130.383 222.68 130.617 222.68 130.845C222.68 138.05 217.196 146.353 207.17 146.353C204.202 146.361 201.295 145.51 198.8 143.904C199.237 143.952 199.676 143.974 200.115 143.97C202.569 143.977 204.953 143.157 206.883 141.643C205.751 141.619 204.655 141.243 203.745 140.568C202.836 139.893 202.16 138.952 201.809 137.875C202.15 137.928 202.493 137.957 202.838 137.959C203.322 137.957 203.804 137.895 204.273 137.773C203.038 137.523 201.928 136.854 201.132 135.879C200.335 134.903 199.9 133.682 199.902 132.423V132.356C200.652 132.778 201.491 133.018 202.352 133.056C201.195 132.284 200.377 131.101 200.063 129.746C199.75 128.392 199.965 126.968 200.665 125.767C202.034 127.452 203.742 128.831 205.679 129.814C207.615 130.796 209.736 131.361 211.905 131.471C211.817 131.06 211.771 130.642 211.769 130.222C211.766 129.125 212.094 128.053 212.71 127.146C213.326 126.238 214.201 125.538 215.221 125.135C216.241 124.732 217.359 124.646 218.428 124.888C219.498 125.13 220.47 125.689 221.217 126.492C222.438 126.257 223.609 125.812 224.678 125.176C224.271 126.435 223.419 127.503 222.281 128.178C223.367 128.056 224.429 127.772 225.43 127.335C224.684 128.421 223.76 129.373 222.697 130.152L222.68 130.145Z" fill="white"/>
<path d="M180.071 134.197C168.669 167.535 169.964 178.778 169.964 178.778L172.414 197.674C172.414 197.674 123.072 204.672 130.771 181.577C135.183 168.336 134.193 147.039 132.541 131.282C131.313 119.553 129.721 110.892 129.721 110.892L186.412 116.841C183.962 123.206 181.862 128.969 180.071 134.197Z" fill="white" fill-opacity="0.89"/>
<path opacity="0.1" d="M186.412 116.841C183.962 123.199 181.862 128.969 180.057 134.197C173.027 139.296 164.444 141.794 155.776 141.262C147.108 140.73 138.894 137.202 132.541 131.282C131.313 119.553 129.721 110.892 129.721 110.892L186.412 116.841Z" fill="black"/>
<path d="M158.08 140.636C178.76 140.636 195.524 123.872 195.524 103.193C195.524 82.5147 178.76 65.7512 158.08 65.7512C137.4 65.7512 120.636 82.5147 120.636 103.193C120.636 123.872 137.4 140.636 158.08 140.636Z" fill="white" fill-opacity="0.89"/>
<path d="M183.262 199.773L161.216 190.325L165.065 160.931C168.286 161.307 171.46 162.01 174.538 163.031C183.028 165.781 194.485 171.993 196.896 185.717C196.898 185.74 196.898 185.763 196.896 185.787C200.759 208.172 183.262 199.773 183.262 199.773Z" fill="white"/>
<path opacity="0.05" d="M196.91 185.706L193.949 190.15L182.093 190.941V182.973C182.093 182.973 179.252 173.704 179.252 173.004C179.252 172.304 174.514 163.993 174.514 163.993L172.603 162.506L174.552 163.02C183.042 165.771 194.516 171.982 196.91 185.706Z" fill="black"/>
<path d="M172.603 162.506L179.427 175.278V191.025L188.875 193.475L182.926 177.028C182.926 177.028 176.102 163.906 172.603 162.506Z" fill="#C4C4C4"/>
<path d="M110.824 297.753C110.673 293.921 111.122 290.088 112.153 286.394C116.619 269.986 109.074 216.584 109.074 216.584C109.074 216.584 111.174 171.093 139.169 163.395C165.901 156.046 184.662 186.34 186.293 189.09C186.373 189.22 186.412 189.289 186.412 189.289L197.54 184.422L197.61 184.391C197.61 184.446 197.61 184.506 197.61 184.565C197.697 187.053 199.611 191.959 202.261 197.632C206.657 207.051 210.157 216.863 212.717 226.938C215.53 237.996 217.219 249.309 217.76 260.706C218.848 283.049 223.506 297.753 223.506 297.753H110.824Z" fill="#C4C4C4"/>
<path opacity="0.1" d="M212.734 226.924L214.246 237.041L186.251 189.101L186.307 189.076L197.449 184.202L197.554 184.408L197.627 184.552C197.715 187.04 199.629 191.946 202.278 197.618C206.674 207.037 210.175 216.849 212.734 226.924Z" fill="black"/>
<path opacity="0.1" d="M140.775 51.3867C126.022 49.7211 110.411 53.3393 98.9256 62.7488C87.4405 72.1584 80.7285 87.6356 83.3076 102.256C85.4668 114.419 93.6205 126.089 90.7124 138.092C87.9514 149.492 76.3997 156.134 65.9434 161.449L29.4128 180.016C25.4689 182.021 21.2101 184.362 19.6143 188.481C17.9486 192.754 19.6983 197.579 22.0429 201.53C24.3876 205.481 27.3796 209.162 28.4749 213.616C29.8747 219.296 27.894 225.325 24.839 230.308C21.784 235.291 17.6791 239.546 14.2252 244.263C9.42045 250.807 5.84052 258.459 5.30861 266.55C4.77669 274.64 7.67423 283.178 13.9382 288.326C19.6878 293.05 27.4601 294.453 34.8964 294.82C49.811 295.555 64.6416 292.805 79.3393 290.068L93.4665 287.433C106.474 285.008 120.573 281.964 129.035 271.788C138.833 260.024 137.703 242.926 135.778 227.746C133.854 212.567 132.027 195.728 140.919 183.264C146.731 175.1 156.463 170.036 161.086 161.145C169.548 144.884 157.237 124.854 161.209 106.962C162.335 101.895 164.743 97.2096 166.244 92.2407C168.914 83.398 169.198 70.6502 164.621 62.2309C160.411 54.5151 148.712 52.279 140.775 51.3867Z" fill="black"/>
<path d="M140.076 51.3867C125.322 49.7211 109.711 53.3393 98.2258 62.7488C86.7406 72.1584 80.0287 87.6356 82.6078 102.256C84.7669 114.419 92.9206 126.089 90.0126 138.092C87.2515 149.492 75.6999 156.134 65.2436 161.449L28.7129 180.016C24.7691 182.021 20.5102 184.362 18.9145 188.481C17.2488 192.754 18.9985 197.579 21.3431 201.53C23.6877 205.481 26.6797 209.162 27.7751 213.616C29.1748 219.296 27.1942 225.325 24.1391 230.308C21.0841 235.291 16.9793 239.546 13.5254 244.263C8.72062 250.807 5.1407 258.459 4.60878 266.55C4.07687 274.64 6.9744 283.178 13.2384 288.326C18.988 293.05 26.7602 294.453 34.1965 294.82C49.1112 295.555 63.9418 292.805 78.6394 290.068L92.7667 287.433C105.774 285.008 119.873 281.964 128.335 271.788C138.133 260.024 137.003 242.926 135.078 227.746C133.154 212.567 131.327 195.728 140.219 183.264C146.032 175.1 155.764 170.036 160.386 161.145C168.848 144.884 156.537 124.854 160.509 106.962C161.636 101.895 164.043 97.2096 165.545 92.2407C168.215 83.398 168.498 70.6502 163.921 62.2309C159.711 54.5151 148.012 52.279 140.076 51.3867Z" fill="#C4C4C4"/>
<path opacity="0.1" d="M140.076 51.3867C125.322 49.7211 109.711 53.3393 98.2258 62.7488C86.7406 72.1584 80.0287 87.6356 82.6078 102.256C84.7669 114.419 92.9206 126.089 90.0126 138.092C87.2515 149.492 75.6999 156.134 65.2436 161.449L28.7129 180.016C24.7691 182.021 20.5102 184.362 18.9145 188.481C17.2488 192.754 18.9985 197.579 21.3431 201.53C23.6877 205.481 26.6797 209.162 27.7751 213.616C29.1748 219.296 27.1942 225.325 24.1391 230.308C21.0841 235.291 16.9793 239.546 13.5254 244.263C8.72062 250.807 5.1407 258.459 4.60878 266.55C4.07687 274.64 6.9744 283.178 13.2384 288.326C18.988 293.05 26.7602 294.453 34.1965 294.82C49.1112 295.555 63.9418 292.805 78.6394 290.068L92.7667 287.433C105.774 285.008 119.873 281.964 128.335 271.788C138.133 260.024 137.003 242.926 135.078 227.746C133.154 212.567 131.327 195.728 140.219 183.264C146.032 175.1 155.764 170.036 160.386 161.145C168.848 144.884 156.537 124.854 160.509 106.962C161.636 101.895 164.043 97.2096 165.545 92.2407C168.215 83.398 168.498 70.6502 163.921 62.2309C159.711 54.5151 148.012 52.279 140.076 51.3867Z" fill="black"/>
<path d="M172.603 162.506L198.849 210.688L217.046 201.348C217.046 201.348 184.501 157.257 180.302 157.957C176.102 158.657 172.603 162.506 172.603 162.506Z" fill="#C4C4C4"/>
<path d="M221.056 196.274L215.107 178.778C215.107 178.778 210.908 135.737 194.46 134.337C178.013 132.937 198.66 180.177 198.66 180.177C198.66 180.177 206.008 193.824 203.209 203.972C200.409 214.12 221.056 196.274 221.056 196.274Z" fill="white"/>
<path opacity="0.1" d="M137.101 229.048L178.013 278.507C178.013 278.507 217.207 306.501 228.055 285.855C228.055 285.855 232.604 229.517 227.355 216.22C222.106 202.923 220.356 194.524 220.356 194.524C220.356 194.524 198.66 202.923 197.26 196.974L197.785 253.837C197.785 253.837 173.114 163.031 149.318 174.229C148.986 174.385 148.66 174.542 148.338 174.701C127.971 184.828 122.589 211.51 137.101 229.048Z" fill="black"/>
<path d="M138.501 227.998L179.413 277.457C179.413 277.457 218.606 305.451 229.455 284.806C229.455 284.806 232.604 228.467 227.355 215.17C222.106 201.873 221.756 193.475 221.756 193.475C221.756 193.475 200.059 201.873 198.66 195.924L199.535 266.434C199.535 266.434 174.514 161.981 150.717 173.179C150.386 173.335 150.059 173.493 149.738 173.651C129.371 183.778 123.989 210.46 138.501 227.998Z" fill="#C4C4C4"/>
<path d="M242.242 43.1811C243.788 43.1811 245.041 41.9278 245.041 40.3817C245.041 38.8356 243.788 37.5823 242.242 37.5823C240.696 37.5823 239.442 38.8356 239.442 40.3817C239.442 41.9278 240.696 43.1811 242.242 43.1811Z" fill="white"/>
<path d="M233.143 80.6231C233.916 80.6231 234.543 79.9965 234.543 79.2234C234.543 78.4504 233.916 77.8237 233.143 77.8237C232.37 77.8237 231.743 78.4504 231.743 79.2234C231.743 79.9965 232.37 80.6231 233.143 80.6231Z" fill="white"/>
<path d="M180.651 41.7813C181.425 41.7813 182.051 41.1547 182.051 40.3816C182.051 39.6086 181.425 38.9819 180.651 38.9819C179.878 38.9819 179.252 39.6086 179.252 40.3816C179.252 41.1547 179.878 41.7813 180.651 41.7813Z" fill="white"/>
<path d="M64.2812 98.7108C65.0543 98.7108 65.681 98.0841 65.681 97.3111C65.681 96.538 65.0543 95.9114 64.2812 95.9114C63.5082 95.9114 62.8815 96.538 62.8815 97.3111C62.8815 98.0841 63.5082 98.7108 64.2812 98.7108Z" fill="white"/>
<path d="M145.307 199.948C146.08 199.948 146.707 199.322 146.707 198.549C146.707 197.776 146.08 197.149 145.307 197.149C144.534 197.149 143.907 197.776 143.907 198.549C143.907 199.322 144.534 199.948 145.307 199.948Z" fill="white"/>
<path d="M50.4724 135.562C51.2455 135.562 51.8722 134.935 51.8722 134.162C51.8722 133.389 51.2455 132.762 50.4724 132.762C49.6993 132.762 49.0726 133.389 49.0726 134.162C49.0726 134.935 49.6993 135.562 50.4724 135.562Z" fill="white"/>
<path d="M293.683 52.2792C294.457 52.2792 295.083 51.6525 295.083 50.8794C295.083 50.1064 294.457 49.4797 293.683 49.4797C292.91 49.4797 292.284 50.1064 292.284 50.8794C292.284 51.6525 292.91 52.2792 293.683 52.2792Z" fill="white"/>
<path d="M214.246 108.967C215.019 108.967 215.646 108.341 215.646 107.568C215.646 106.795 215.019 106.168 214.246 106.168C213.473 106.168 212.846 106.795 212.846 107.568C212.846 108.341 213.473 108.967 214.246 108.967Z" fill="white"/>
<path d="M333.927 90.7711C334.7 90.7711 335.327 90.1444 335.327 89.3714C335.327 88.5984 334.7 87.9717 333.927 87.9717C333.154 87.9717 332.527 88.5984 332.527 89.3714C332.527 90.1444 333.154 90.7711 333.927 90.7711Z" fill="white"/>
<path d="M242.403 194.941C243.176 194.941 243.802 194.314 243.802 193.541C243.802 192.768 243.176 192.141 242.403 192.141C241.63 192.141 241.003 192.768 241.003 193.541C241.003 194.314 241.63 194.941 242.403 194.941Z" fill="white"/>
<path d="M293.684 92.4543H290.775V89.5464H290.289V92.4543H287.385V92.9407H290.289V95.8451H290.775V92.9407H293.684V92.4543Z" fill="white"/>
<path d="M148.107 266.154H146.815V264.86H146.599V266.154H145.307V266.368H146.599V267.659H146.815V266.368H148.107V266.154Z" fill="white"/>
<path d="M205.848 226.613H204.553V225.318H204.339V226.613H203.048V226.826H204.339V228.117H204.553V226.826H205.848V226.613Z" fill="white"/>
<path d="M291.934 146.129H290.639V144.835H290.425V146.129H289.134V146.343H290.425V147.634H290.639V146.343H291.934V146.129Z" fill="white"/>
<path d="M233.143 166.425H231.848V165.131H231.635V166.425H230.344V166.639H231.635V167.93H231.848V166.639H233.143V166.425Z" fill="white"/>
<path d="M66.9198 144.73H65.625V143.435H65.4115V144.73H64.1202V144.943H65.4115V146.234H65.625V144.943H66.9198V144.73Z" fill="white"/>
<path d="M207.247 62.4971H205.953V61.2024H205.739V62.4971H204.448V62.7106H205.739V64.0018H205.953V62.7106H207.247V62.4971Z" fill="white"/>
<path d="M94.2154 50.2496H92.9242V48.9548H92.7072V50.2496H91.4159V50.463H92.7072V51.7542H92.9242V50.463H94.2154V50.2496Z" fill="white"/>
<path opacity="0.2" d="M252.31 53.7102L250.29 58.8646V79.9372H257.45V83.7444H261.485L265.292 79.9372H271.126L278.972 72.0919V53.7102H252.31ZM276.298 70.7447L271.798 75.2307H264.624L260.817 79.0379V75.2307H254.763V56.3976H276.284L276.298 70.7447ZM271.798 61.5521V69.3904H269.11V61.5521H271.798ZM264.624 61.5521V69.3904H261.937V61.5521H264.624Z" fill="white"/>
<path opacity="0.2" d="M300.567 120.357L294.81 117.957L302.509 99.4281L308.266 101.818L300.567 120.357ZM306.442 98.1054C305.779 97.833 305.212 97.3701 304.811 96.7752C304.411 96.1803 304.197 95.4801 304.194 94.7631C304.192 94.0462 304.403 93.3446 304.799 92.7473C305.196 92.1499 305.76 91.6835 306.422 91.407C307.083 91.1306 307.812 91.0565 308.516 91.1941C309.219 91.3318 309.866 91.675 310.375 92.1803C310.884 92.6857 311.231 93.3305 311.373 94.0332C311.515 94.7359 311.446 95.465 311.174 96.1283C310.806 97.0155 310.102 97.7212 309.215 98.0915C308.329 98.4619 307.332 98.4669 306.442 98.1054ZM322.113 129.308L316.37 126.922L320.118 117.904C321.011 115.756 322.113 112.981 319.166 111.756C316.22 110.531 314.747 112.659 313.742 115.073L309.921 124.255L304.171 121.865L311.87 103.337L317.389 105.629L316.339 108.155L316.419 108.19C317.791 107.053 320.307 106.297 323.107 107.462C328.93 109.88 328.408 114.16 326.34 119.143L322.109 129.319L322.113 129.308Z" fill="white"/>
<path opacity="0.2" d="M200.269 23.4276C199.138 23.4303 198.032 23.7685 197.092 24.3994C196.152 25.0303 195.421 25.9256 194.99 26.9721C194.559 28.0186 194.448 29.1694 194.67 30.2791C194.893 31.3887 195.44 32.4075 196.241 33.2066C197.043 34.0057 198.063 34.5492 199.174 34.7686C200.284 34.988 201.435 34.8733 202.48 34.439C203.525 34.0048 204.418 33.2705 205.046 32.3289C205.674 31.3873 206.009 30.2807 206.009 29.1489C206.009 28.3958 205.861 27.65 205.573 26.9543C205.285 26.2586 204.862 25.6267 204.329 25.095C203.795 24.5633 203.162 24.1423 202.465 23.8562C201.769 23.57 201.023 23.4243 200.269 23.4276ZM200.269 32.8756C199.534 32.8756 198.814 32.6574 198.203 32.2487C197.591 31.84 197.114 31.259 196.833 30.5793C196.551 29.8997 196.477 29.1517 196.621 28.4302C196.765 27.7086 197.119 27.0458 197.639 26.5256C198.159 26.0054 198.822 25.6511 199.544 25.5076C200.265 25.3641 201.013 25.4378 201.693 25.7193C202.373 26.0008 202.954 26.4776 203.362 27.0893C203.771 27.701 203.989 28.4202 203.989 29.1559C203.987 30.1418 203.595 31.0869 202.898 31.7841C202.201 32.4813 201.255 32.8737 200.269 32.8756ZM207.562 23.1966C207.562 23.461 207.484 23.7194 207.337 23.9393C207.19 24.1591 206.981 24.3304 206.737 24.4316C206.493 24.5328 206.224 24.5592 205.965 24.5077C205.705 24.4561 205.467 24.3288 205.28 24.1418C205.093 23.9549 204.966 23.7167 204.914 23.4574C204.863 23.1981 204.889 22.9293 204.99 22.6851C205.092 22.4408 205.263 22.2321 205.483 22.0852C205.703 21.9383 205.961 21.8599 206.225 21.8599C206.401 21.8594 206.575 21.8936 206.737 21.9604C206.899 22.0272 207.046 22.1253 207.171 22.2491C207.295 22.373 207.393 22.5201 207.46 22.6821C207.528 22.8441 207.562 23.0177 207.562 23.1931V23.1966ZM211.352 24.5508C211.268 22.7627 210.859 21.1775 209.55 19.8723C208.241 18.5671 206.659 18.1577 204.871 18.0702C203.027 17.9652 197.501 17.9652 195.661 18.0702C193.876 18.1542 192.294 18.5636 190.982 19.8688C189.67 21.174 189.267 22.7592 189.18 24.5473C189.075 26.3914 189.075 31.9168 189.18 33.7574C189.264 35.5455 189.673 37.1307 190.982 38.4359C192.291 39.7412 193.872 40.1506 195.661 40.2381C197.505 40.343 203.03 40.343 204.871 40.2381C206.659 40.1541 208.245 39.7447 209.55 38.4359C210.855 37.1272 211.265 35.5455 211.352 33.7574C211.457 31.9133 211.457 26.4089 211.352 24.5508ZM208.973 35.7485C208.783 36.2283 208.497 36.664 208.132 37.0288C207.767 37.3935 207.332 37.6795 206.852 37.869C205.382 38.4534 201.893 38.317 200.269 38.317C198.646 38.317 195.153 38.4464 193.687 37.869C193.207 37.6795 192.771 37.3935 192.407 37.0288C192.042 36.664 191.756 36.2283 191.566 35.7485C190.982 34.2788 191.118 30.79 191.118 29.1664C191.118 27.5427 190.989 24.0504 191.566 22.5842C191.756 22.1045 192.042 21.6687 192.407 21.304C192.771 20.9392 193.207 20.6532 193.687 20.4637C195.157 19.8793 198.646 20.0158 200.269 20.0158C201.893 20.0158 205.386 19.8863 206.852 20.4637C207.332 20.6532 207.767 20.9392 208.132 21.304C208.497 21.6687 208.783 22.1045 208.973 22.5842C209.557 24.0539 209.42 27.5427 209.42 29.1664C209.42 30.79 209.553 34.2683 208.973 35.724V35.7485Z" fill="white"/>
<path opacity="0.2" d="M276.186 152.25V172.794C276.186 173.132 276.052 173.456 275.813 173.695C275.574 173.934 275.25 174.068 274.912 174.068H269.026V165.11H272.025L272.473 161.61H269.019V159.385C269.019 158.374 269.299 157.688 270.748 157.688H272.592V154.57C271.699 154.474 270.8 154.428 269.901 154.43C267.242 154.43 265.415 156.054 265.415 159.038V161.61H262.405V165.11H265.415V174.054H254.364C254.026 174.053 253.703 173.918 253.464 173.68C253.225 173.441 253.091 173.118 253.09 172.78V152.25C253.091 151.912 253.225 151.589 253.464 151.35C253.703 151.111 254.026 150.977 254.364 150.976H274.909C275.247 150.976 275.572 151.11 275.811 151.349C276.05 151.588 276.185 151.912 276.186 152.25Z" fill="white"/>
<path opacity="0.2" d="M333.805 61.9932C333.789 61.3501 333.606 60.7223 333.272 60.1727C332.937 59.623 332.465 59.1708 331.901 58.8613C329.829 57.7311 320.951 55.593 320.951 55.593C320.951 55.593 312.07 53.455 309.711 53.518C309.069 53.5372 308.442 53.7248 307.895 54.0619C307.348 54.3991 306.899 54.8739 306.593 55.4391C305.463 57.5386 304.343 62.1752 304.343 62.1752C304.343 62.1752 303.223 66.8257 303.293 69.1982C303.31 69.836 303.496 70.4579 303.832 71.0006C304.168 71.5433 304.641 71.9875 305.204 72.288C307.275 73.4183 316.153 75.5564 316.153 75.5564C316.153 75.5564 325.035 77.6944 327.394 77.6314C328.032 77.6204 328.657 77.4404 329.203 77.1097C329.75 76.7791 330.199 76.3095 330.505 75.7488C331.635 73.6493 332.755 69.0127 332.755 69.0127C332.755 69.0127 333.864 64.3657 333.805 61.9932ZM314.621 69.1212L316.654 60.6775L323.061 66.6857L314.624 69.1352L314.621 69.1212Z" fill="white"/>
</g>
<defs>
<linearGradient id="paint0_linear" x1="182.013" y1="301.7" x2="182.013" y2="3.01159e-05" gradientUnits="userSpaceOnUse">
<stop stop-color="#808080" stop-opacity="0.25"/>
<stop offset="0.54" stop-color="#808080" stop-opacity="0.12"/>
<stop offset="1" stop-color="#808080" stop-opacity="0.1"/>
</linearGradient>
<clipPath id="clip0">
<rect width="371.42" height="301.7" fill="white"/>
</clipPath>
</defs>
</svg>
