<svg width="406" height="74" viewBox="0 0 406 74" fill="none" xmlns="http://www.w3.org/2000/svg">
<path fill-rule="evenodd" clip-rule="evenodd" d="M101.421 58.9431V10.3151H113.288V48.7381H133.759V58.9431H101.421ZM169.036 40.8765C169.036 41.8531 168.898 43.4575 168.829 44.155H145.901C146.589 48.0613 149.825 50.0842 153.957 50.0842C156.711 50.0144 159.534 48.9681 161.806 46.3872L168.003 52.8046C165.18 56.3622 160.498 58.9431 152.855 58.9431C142.665 58.9431 135.228 51.8281 135.228 41.2253C135.228 30.9015 142.389 23.5773 152.58 23.5773C162.081 23.5773 169.036 30.762 169.036 40.8765ZM153.028 32.4187C149.943 32.4187 147.63 34.6102 146.987 38.313H158.746C158.104 34.6858 156.048 32.4187 153.028 32.4187ZM171.975 58.9431V7.36792H182.71V37.0096H182.849L192.817 24.6764H205.434L193.932 38.3411L205.782 58.9431H193.723L186.125 45.4887L182.71 49.2727V58.9431H171.975ZM207.252 72.2053V24.2061H218.276V27.8392H218.418C220.891 25.0445 224.354 23.5773 228.24 23.5773C237.215 23.5773 243.999 30.8435 243.999 41.3237C243.999 51.8737 237.215 59.0003 227.675 59.0003C223.718 59.0003 220.679 57.6029 218.418 55.0178L218.276 55.0877V72.2053H207.252ZM226.533 48.6281C230.674 48.6281 233.71 45.4002 233.71 40.5585C233.71 35.6466 230.605 32.4187 226.464 32.4187C222.117 32.4187 219.011 35.8571 219.011 40.5585C219.011 45.4704 222.255 48.6281 226.533 48.6281ZM248.409 58.9431V7.36792H258.698V58.9431H248.409ZM278.056 58.9431C268.532 58.9431 261.638 51.8281 261.638 41.2951C261.638 30.8318 268.532 23.5773 277.488 23.5773C281.184 23.5773 284.667 25.0421 287.083 27.8323L287.225 27.7626V24.2051H298.384V58.3153H287.794V54.7578L287.652 54.688C285.377 57.548 282.25 58.9431 278.056 58.9431ZM280.817 48.6281C284.774 48.6281 288.095 45.4704 288.095 40.5585C288.095 35.8571 284.915 32.4187 280.817 32.4187C276.577 32.4187 273.397 35.6466 273.397 40.5585C273.397 45.4002 276.435 48.6281 280.817 48.6281ZM313.783 58.9431C307.904 58.9431 303.704 55.403 303.704 47.8463V33.6178H299.854V25.0399H303.704V14.3515L314.693 13.2622V25.0399H322.952V33.6178H314.693V45.872C314.693 48.0505 315.183 49.6163 317.283 49.6163C318.053 49.6163 319.453 49.4121 320.643 48.8674L323.372 56.6965C320.992 57.99 318.543 58.9431 313.783 58.9431ZM338.071 58.9431C332.952 58.9431 328.432 57.269 324.842 53.9207L329.695 46.8755C332.42 49.4564 335.212 50.712 338.204 50.712C340.265 50.712 341.328 49.9447 341.328 48.6891C341.328 47.573 340.331 46.8755 336.276 45.5501C330.825 43.8062 326.039 41.016 326.039 34.4591C326.039 27.5533 331.423 23.5773 338.204 23.5773C343.123 23.5773 346.713 24.9026 350.502 27.8323L345.583 35.4356C343.323 33.064 340.531 31.8781 338.337 31.8781C337.14 31.8781 335.744 32.4362 335.744 33.7615C335.744 34.8078 336.941 35.5751 340.198 36.761C347.378 39.3419 351.3 41.2951 351.3 47.9915C351.3 54.3393 346.979 58.9431 338.071 58.9431ZM360.917 58.9431C358.031 58.9431 355.709 56.6366 355.709 53.7535C355.709 50.9345 358.031 48.6281 360.917 48.6281C363.677 48.6281 365.999 50.9345 365.999 53.7535C365.999 56.6366 363.677 58.9431 360.917 58.9431ZM375.758 58.9431C372.384 58.9431 369.252 57.5729 367.468 55.2577L370.023 52.7535C371.565 54.5962 373.541 55.6357 375.758 55.6357C378.408 55.6357 380.48 54.4544 380.48 52.3755C380.48 50.4383 378.36 49.6823 375.517 48.4538C372.432 47.1309 369.782 45.3826 369.782 41.9807C369.782 37.9646 373.396 35.3659 377.541 35.3659C380.288 35.3659 383.083 36.2164 385.107 38.4843L382.553 41.0357C381.011 39.2403 379.227 38.6733 377.444 38.6733C375.324 38.6733 373.685 39.8545 373.685 41.7917C373.685 43.4927 375.613 44.5322 377.878 45.5716C380.77 46.8946 384.336 48.3121 384.384 51.9502C384.384 56.5806 380.673 58.9431 375.758 58.9431ZM395.895 55.4939C398.259 55.4939 400.057 54.5017 401.807 52.6117L404.786 54.7379C402.327 57.3839 399.773 58.9431 395.753 58.9431C390.171 58.9431 386.577 55.3522 386.577 49.3988C386.577 41.8862 391.165 35.3659 398.59 35.3659C401.854 35.3659 405.685 37.1141 405.685 41.3665C405.685 47.3671 397.455 49.3988 390.313 50.0603C390.55 53.604 392.962 55.4939 395.895 55.4939ZM397.714 38.313C394.054 38.313 390.395 41.4487 389.517 47.1545C395.03 46.6404 401.276 45.2525 401.276 41.2944C401.276 39.0327 399.421 38.313 397.714 38.313Z" fill="white"/>
<path opacity="0.302595" fill-rule="evenodd" clip-rule="evenodd" d="M73.4056 39.4092C72.0894 58.556 56.1797 73.6784 36.7468 73.6784C16.4521 73.6784 0 57.1849 0 36.839C0 17.3572 15.0845 1.4074 34.1831 0.0878906V19.0299C25.4862 20.277 18.8007 27.7753 18.8007 36.839C18.8007 46.7754 26.8355 54.8304 36.7468 54.8304C45.7878 54.8304 53.2672 48.1281 54.5112 39.4092H73.4056Z" fill="white"/>
<path fill-rule="evenodd" clip-rule="evenodd" d="M73.4065 33.8924H54.72C53.6081 26.0996 47.4597 19.9357 39.6865 18.821V0.0874023C57.7374 1.33452 72.1626 15.796 73.4065 33.8924Z" fill="white"/>
</svg>
