<svg width="138" height="40" viewBox="0 0 138 40" fill="none" xmlns="http://www.w3.org/2000/svg">
<g filter="url(#filter0_i)">
<path d="M54.75 8.9375V13.0938H57.0156V16.4219H54.75V24.8125C54.75 25.4792 54.8385 25.9375 55.0156 26.1875C55.2031 26.4375 55.5573 26.5625 56.0781 26.5625C56.5052 26.5625 56.8542 26.526 57.125 26.4531L57.0938 29.8906C56.3438 30.1719 55.5312 30.3125 54.6562 30.3125C51.8021 30.3125 50.3594 28.6771 50.3281 25.4062V16.4219H48.375V13.0938H50.3281V8.9375H54.75ZM66.2812 30.3125C64.0104 30.3125 62.2396 29.6354 60.9688 28.2812C59.6979 26.9271 59.0625 24.9896 59.0625 22.4688V21.125C59.0625 18.4583 59.6458 16.401 60.8125 14.9531C61.9792 13.5052 63.651 12.7812 65.8281 12.7812C67.9531 12.7812 69.5521 13.4635 70.625 14.8281C71.6979 16.1823 72.2448 18.1927 72.2656 20.8594V23.0312H63.4688C63.5312 24.2812 63.8073 25.1979 64.2969 25.7812C64.7865 26.3542 65.5417 26.6406 66.5625 26.6406C68.0417 26.6406 69.276 26.1354 70.2656 25.125L72 27.7969C71.4583 28.5469 70.6719 29.1562 69.6406 29.625C68.6094 30.0833 67.4896 30.3125 66.2812 30.3125ZM63.5 19.9375H67.9219V19.5312C67.901 18.5208 67.7344 17.7552 67.4219 17.2344C67.1094 16.7135 66.5677 16.4531 65.7969 16.4531C65.026 16.4531 64.4635 16.7292 64.1094 17.2812C63.7656 17.8333 63.5625 18.7188 63.5 19.9375ZM80.875 26.6406C82.1562 26.6406 82.8073 25.8073 82.8281 24.1406H86.9844C86.9635 25.9844 86.3958 27.474 85.2812 28.6094C84.1667 29.7448 82.7292 30.3125 80.9688 30.3125C78.7917 30.3125 77.1302 29.6354 75.9844 28.2812C74.8385 26.9271 74.2552 24.9323 74.2344 22.2969V20.9531C74.2344 18.2969 74.7969 16.2708 75.9219 14.875C77.0573 13.4792 78.7292 12.7812 80.9375 12.7812C82.8021 12.7812 84.2708 13.3594 85.3438 14.5156C86.4167 15.6615 86.9635 17.2917 86.9844 19.4062H82.8281C82.8177 18.4583 82.6615 17.7292 82.3594 17.2188C82.0573 16.7083 81.5573 16.4531 80.8594 16.4531C80.0885 16.4531 79.5365 16.7292 79.2031 17.2812C78.8698 17.8229 78.6927 18.8802 78.6719 20.4531V22.1719C78.6719 23.5469 78.7396 24.5104 78.875 25.0625C79.0104 25.6042 79.2344 26.0052 79.5469 26.2656C79.8594 26.5156 80.3021 26.6406 80.875 26.6406ZM93.7969 14.5781C94.7552 13.3802 95.9323 12.7812 97.3281 12.7812C98.8698 12.7812 100.042 13.3229 100.844 14.4062C101.646 15.4896 102.052 17.1042 102.062 19.25V30H97.625V19.2969C97.625 18.3073 97.4688 17.5938 97.1562 17.1562C96.8542 16.7083 96.3594 16.4844 95.6719 16.4844C94.8698 16.4844 94.2448 16.8542 93.7969 17.5938V30H89.375V6H93.7969V14.5781ZM115.123 22.4805H116.818V25.6934H115.123V30H111.254V25.6934H104.664L104.486 23.1914L111.24 10.0938H115.123V22.4805ZM108.246 22.4805H111.254V15.8223L111.172 15.9727L108.246 22.4805ZM130.764 12.3223L124.475 30H120.387L126.703 13.3066H118.719V10.0938H130.764V12.3223Z" fill="#101010" fill-opacity="0.89"/>
</g>
<path d="M20 35.7646C28.8366 35.7646 36 28.6012 36 19.7646C36 10.9281 28.8366 3.76465 20 3.76465C11.1634 3.76465 4 10.9281 4 19.7646C4 28.6012 11.1634 35.7646 20 35.7646Z" fill="#363636" fill-opacity="0.89"/>
<path d="M20 9L29 27H11L20 9Z" fill="#F0F0F0"/>
<defs>
<filter id="filter0_i" x="48.375" y="6" width="82.3887" height="28.3125" filterUnits="userSpaceOnUse" color-interpolation-filters="sRGB">
<feFlood flood-opacity="0" result="BackgroundImageFix"/>
<feBlend mode="normal" in="SourceGraphic" in2="BackgroundImageFix" result="shape"/>
<feColorMatrix in="SourceAlpha" type="matrix" values="0 0 0 0 0 0 0 0 0 0 0 0 0 0 0 0 0 0 127 0" result="hardAlpha"/>
<feOffset dy="4"/>
<feGaussianBlur stdDeviation="2"/>
<feComposite in2="hardAlpha" operator="arithmetic" k2="-1" k3="1"/>
<feColorMatrix type="matrix" values="0 0 0 0 0 0 0 0 0 0 0 0 0 0 0 0 0 0 0.25 0"/>
<feBlend mode="normal" in2="shape" result="effect1_innerShadow"/>
</filter>
</defs>
</svg>
