<svg width="287" height="573" viewBox="0 0 287 573" fill="none" xmlns="http://www.w3.org/2000/svg">
<path d="M197.5 133.5C197.5 170.321 191.965 203.635 183.033 227.725C178.566 239.772 173.259 249.486 167.392 256.179C161.523 262.874 155.138 266.5 148.5 266.5C141.862 266.5 135.477 262.874 129.608 256.179C123.741 249.486 118.434 239.772 113.967 227.725C105.035 203.635 99.5 170.321 99.5 133.5C99.5 96.6785 105.035 63.3651 113.967 39.2751C118.434 27.2281 123.741 17.514 129.608 10.8207C135.477 4.12645 141.862 0.5 148.5 0.5C155.138 0.5 161.523 4.12645 167.392 10.8207C173.259 17.514 178.566 27.2281 183.033 39.2751C191.965 63.3651 197.5 96.6785 197.5 133.5Z" stroke="white" stroke-linejoin="round"/>
<path d="M183.148 98.8518C209.185 124.888 228.828 152.358 239.546 175.709C244.906 187.386 248.022 198.007 248.606 206.889C249.19 215.772 247.239 222.851 242.545 227.545C237.852 232.239 230.772 234.19 221.889 233.606C213.007 233.022 202.386 229.906 190.709 224.546C167.358 213.827 139.889 194.185 113.852 168.148C87.8152 142.112 68.1727 114.642 57.4546 91.2914C52.0946 79.6144 48.9782 68.9929 48.3944 60.111C47.8104 51.2279 49.7612 44.1485 54.4549 39.4548C59.1487 34.7611 66.228 32.8103 75.1112 33.3942C83.9931 33.9781 94.6146 37.0945 106.292 42.4544C129.642 53.1726 157.112 72.8151 183.148 98.8518Z" stroke="white" stroke-linejoin="round"/>
<path d="M113.852 98.8516C139.888 72.8149 167.358 53.1724 190.709 42.4543C202.386 37.0943 213.007 33.9779 221.889 33.3941C230.772 32.8101 237.851 34.7609 242.545 39.4547C247.239 44.1484 249.19 51.2278 248.606 60.1109C248.022 68.9928 244.906 79.6143 239.546 91.2913C228.827 114.642 209.185 142.111 183.148 168.148C157.112 194.185 129.642 213.827 106.291 224.545C94.6144 229.905 83.9929 233.022 75.111 233.606C66.2279 234.19 59.1485 232.239 54.4548 227.545C49.7611 222.851 47.8103 215.772 48.3942 206.889C48.9781 198.007 52.0945 187.385 57.4544 175.708C68.1726 152.358 87.8151 124.888 113.852 98.8516Z" stroke="#C4C4C4" stroke-linejoin="round"/>
<path d="M144.5 83.5C181.321 83.5 214.635 89.0348 238.725 97.967C250.772 102.434 260.486 107.741 267.179 113.608C273.874 119.477 277.5 125.862 277.5 132.5C277.5 139.138 273.874 145.523 267.179 151.392C260.486 157.259 250.772 162.566 238.725 167.033C214.635 175.965 181.321 181.5 144.5 181.5C107.679 181.5 74.3651 175.965 50.2751 167.033C38.2281 162.566 28.514 157.259 21.8207 151.392C15.1265 145.523 11.5 139.138 11.5 132.5C11.5 125.862 15.1265 119.477 21.8207 113.608C28.514 107.741 38.2281 102.434 50.2751 97.967C74.3651 89.0348 107.679 83.5 144.5 83.5Z" stroke="white" stroke-linejoin="round"/>
<g filter="url(#filter0_f)">
<path fill-rule="evenodd" clip-rule="evenodd" d="M183.48 518.086C182.86 519.956 182.221 521.779 181.564 523.551C177.109 535.566 171.829 545.219 166.016 551.85C160.201 558.483 153.941 562 147.5 562C141.059 562 134.799 558.483 128.984 551.85C123.171 545.219 117.891 535.566 113.436 523.551C112.779 521.779 112.14 519.956 111.52 518.085C122.898 512.3 135.086 504.567 147.5 495.155C159.914 504.567 172.102 512.3 183.48 518.086ZM147.5 563C132.847 563 119.681 545.829 110.618 518.541C84.9137 531.428 63.4624 534.26 53.1012 523.899C42.7724 513.57 45.5546 492.22 58.3386 466.622C28.8084 457.542 10 443.836 10 428.5C10 413.313 28.4461 399.723 57.4843 390.643C45.4351 365.817 43.0067 345.196 53.1013 335.101C63.4624 324.74 84.9137 327.572 110.618 340.459C119.681 313.171 132.847 296 147.5 296C162.153 296 175.319 313.171 184.382 340.459C210.086 327.572 231.538 324.74 241.899 335.101C252.304 345.506 249.404 367.095 236.378 392.943C261.429 401.941 277 414.546 277 428.5C277 442.613 261.07 455.347 235.514 464.365C249.271 490.961 252.53 513.268 241.899 523.899C231.538 534.26 210.086 531.428 184.382 518.541C175.319 545.829 162.153 563 147.5 563ZM235.047 463.469C235.892 463.171 236.727 462.87 237.551 462.564C249.566 458.109 259.219 452.829 265.85 447.016C272.483 441.201 276 434.941 276 428.5C276 422.059 272.483 415.799 265.85 409.984C259.219 404.171 249.566 398.891 237.551 394.436C237.013 394.236 236.469 394.038 235.922 393.842C230.154 405.127 222.478 417.203 213.155 429.5C222.014 441.185 229.387 452.671 235.047 463.469ZM235.428 392.605C236.369 390.741 237.257 388.899 238.091 387.083C243.437 375.437 246.528 364.877 247.107 356.078C247.685 347.276 245.746 340.363 241.192 335.808C236.637 331.254 229.724 329.314 220.922 329.893C212.122 330.471 201.563 333.563 189.917 338.909C188.199 339.697 186.459 340.534 184.698 341.419C188.615 353.442 191.743 367.379 193.865 382.644C209.394 384.991 223.464 388.391 235.428 392.605ZM194.007 383.677C209.311 386.006 223.174 389.36 234.971 393.505C229.275 404.63 221.709 416.538 212.526 428.674C207.6 422.223 202.223 415.715 196.433 409.231C195.934 400.399 195.115 391.851 194.007 383.677ZM192.834 382.49C190.729 367.454 187.645 353.727 183.795 341.876C172.584 347.589 160.571 355.208 148.326 364.474C154.475 369.169 160.675 374.273 166.857 379.755C175.859 380.344 184.551 381.268 192.834 382.49ZM168.073 380.839C176.699 381.436 185.029 382.341 192.977 383.522C194.048 391.37 194.853 399.568 195.362 408.037C191.272 403.5 186.981 398.978 182.502 394.498C177.73 389.726 172.909 385.168 168.073 380.839ZM165.23 379.652C159.312 374.443 153.381 369.583 147.5 365.101C141.774 369.465 136.001 374.187 130.238 379.241C134.6 379.082 139.024 379 143.5 379C150.899 379 158.158 379.223 165.23 379.652ZM129.05 380.287C133.796 380.097 138.617 380 143.5 380C151.328 380 158.996 380.25 166.449 380.731C171.591 385.299 176.72 390.13 181.795 395.205C186.569 399.979 191.127 404.801 195.454 409.637C195.814 416.115 196 422.748 196 429.5C196 436.252 195.814 442.884 195.454 449.363C191.127 454.198 186.569 459.02 181.795 463.795C177.514 468.075 173.195 472.183 168.862 476.105C160.654 476.692 152.175 477 143.5 477C137.808 477 132.2 476.868 126.697 476.611C122.177 472.536 117.67 468.26 113.205 463.795C108.431 459.02 103.873 454.199 99.5457 449.363C99.1863 442.885 99 436.252 99 429.5C99 422.748 99.1863 416.115 99.5457 409.637C103.873 404.801 108.431 399.979 113.205 395.205C118.445 389.966 123.741 384.986 129.05 380.287ZM128.654 379.303C134.666 373.992 140.695 369.039 146.674 364.474C134.429 355.208 122.416 347.589 111.205 341.876C107.449 353.44 104.421 366.79 102.321 381.4C110.761 380.386 119.571 379.675 128.654 379.303ZM102.175 382.424C110.289 381.443 118.748 380.742 127.469 380.354C122.452 384.827 117.449 389.547 112.498 394.498C108.019 398.978 103.728 403.5 99.6381 408.037C100.171 399.173 101.028 390.605 102.175 382.424ZM101.292 381.525C103.41 366.698 106.481 353.148 110.302 341.419C108.541 340.534 106.801 339.697 105.083 338.909C93.4373 333.563 82.8777 330.472 74.0783 329.893C65.2764 329.315 58.3631 331.254 53.8084 335.808C49.2537 340.363 47.3146 347.276 47.8932 356.078C48.4716 364.878 51.5634 375.437 56.9089 387.083C57.4038 388.161 57.9178 389.248 58.4507 390.344C71.0053 386.492 85.4924 383.476 101.292 381.525ZM58.8965 391.253C71.283 387.464 85.5667 384.488 101.148 382.55C99.9616 391.065 99.0886 399.992 98.5669 409.231C92.7766 415.714 87.3998 422.223 82.4739 428.674C72.6679 415.715 64.707 403.017 58.8965 391.253ZM57.9288 391.552C54.99 392.468 52.1606 393.43 49.4489 394.436C37.4344 398.891 27.7814 404.171 21.1503 409.984C14.5173 415.799 11 422.059 11 428.5C11 434.941 14.5173 441.201 21.1503 447.016C27.7814 452.829 37.4344 458.109 49.4489 462.564C52.4259 463.668 55.5447 464.72 58.7944 465.716C64.5929 454.271 72.3681 442 81.8453 429.5C71.8881 416.367 63.8098 403.486 57.9288 391.552ZM59.3089 466.918C58.4649 468.603 57.6646 470.271 56.9088 471.917C51.5633 483.563 48.4716 494.122 47.8931 502.922C47.3145 511.724 49.2537 518.637 53.8083 523.191C58.363 527.746 65.2763 529.685 74.0782 529.107C82.8776 528.528 93.4373 525.437 105.083 520.091C106.801 519.302 108.541 518.465 110.302 517.581C106.307 505.318 103.132 491.063 101.009 475.44C85.6775 473.533 71.5882 470.622 59.3089 466.918ZM100.871 474.415C85.7607 472.522 71.8761 469.652 59.7661 466.011C65.4917 454.738 73.1484 442.649 82.4739 430.326C87.3998 436.777 92.7766 443.285 98.5668 449.769C99.0472 458.275 99.8252 466.517 100.871 474.415ZM102.035 475.566C104.142 490.972 107.275 505.025 111.205 517.124C122.416 511.41 134.429 503.792 146.674 494.526C139.912 489.363 133.087 483.704 126.294 477.593C117.941 477.194 109.83 476.509 102.035 475.566ZM125.121 476.533C117.129 476.124 109.366 475.452 101.897 474.542C100.889 466.979 100.127 459.095 99.6381 450.963C103.728 455.5 108.019 460.022 112.498 464.502C116.676 468.68 120.892 472.694 125.121 476.533ZM127.872 477.664C134.419 483.513 140.991 488.937 147.5 493.898C154.184 488.804 160.934 483.221 167.656 477.192C159.822 477.723 151.748 478 143.5 478C138.213 478 132.998 477.886 127.872 477.664ZM169.277 477.078C162.295 483.386 155.278 489.218 148.326 494.526C160.571 503.792 172.584 511.41 183.795 517.124C187.818 504.739 191.006 490.305 193.113 474.469C185.489 475.601 177.519 476.48 169.277 477.078ZM194.277 473.282C195.248 465.73 195.976 457.869 196.433 449.769C202.223 443.285 207.6 436.777 212.526 430.326C221.245 441.848 228.505 453.165 234.092 463.801C222.557 467.781 209.096 471.013 194.277 473.282ZM194.142 474.314C209.188 472.025 222.857 468.747 234.56 464.698C235.827 467.143 237.005 469.551 238.091 471.917C243.437 483.563 246.528 494.122 247.107 502.922C247.685 511.724 245.746 518.637 241.192 523.192C236.637 527.746 229.724 529.685 220.922 529.107C212.122 528.528 201.563 525.437 189.917 520.091C188.199 519.303 186.459 518.465 184.698 517.581C188.789 505.024 192.02 490.379 194.142 474.314ZM193.248 473.438C185.959 474.528 178.348 475.385 170.48 475.986C174.508 472.313 178.522 468.482 182.502 464.502C186.981 460.022 191.272 455.5 195.362 450.963C194.897 458.7 194.185 466.212 193.248 473.438ZM196.52 448.167C202.043 441.938 207.18 435.691 211.899 429.5C207.18 423.309 202.043 417.062 196.52 410.833C196.836 416.933 197 423.165 197 429.5C197 435.835 196.836 442.067 196.52 448.167ZM181.564 335.449C182.221 337.221 182.86 339.044 183.48 340.914C172.102 346.7 159.914 354.433 147.5 363.845C135.086 354.433 122.898 346.7 111.52 340.914C112.14 339.044 112.779 337.221 113.436 335.449C117.891 323.434 123.171 313.781 128.984 307.15C134.799 300.517 141.059 297 147.5 297C153.941 297 160.201 300.517 166.016 307.15C171.829 313.781 177.109 323.434 181.564 335.449ZM98.4801 448.167C92.957 441.938 87.8197 435.691 83.1014 429.5C87.8197 423.309 92.957 417.062 98.4801 410.833C98.1636 416.933 98 423.165 98 429.5C98 435.835 98.1636 442.067 98.4801 448.167Z" fill="url(#paint0_linear)"/>
</g>
<defs>
<filter id="filter0_f" x="0" y="286" width="287" height="287" filterUnits="userSpaceOnUse" color-interpolation-filters="sRGB">
<feFlood flood-opacity="0" result="BackgroundImageFix"/>
<feBlend mode="normal" in="SourceGraphic" in2="BackgroundImageFix" result="shape"/>
<feGaussianBlur stdDeviation="5" result="effect1_foregroundBlur"/>
</filter>
<linearGradient id="paint0_linear" x1="143.5" y1="296" x2="143.5" y2="563" gradientUnits="userSpaceOnUse">
<stop stop-color="#F0F0F0"/>
<stop offset="0.534285"/>
</linearGradient>
</defs>
</svg>
